{
	"asset":{
		"generator":"Khronos glTF Blender I/O v3.6.27",
		"version":"2.0"
	},
	"extensionsUsed":[
		"KHR_texture_transform"
	],
	"extensionsRequired":[
		"KHR_texture_transform"
	],
	"scene":0,
	"scenes":[
		{
			"name":"Scene",
			"nodes":[
				0
			]
		}
	],
	"nodes":[
		{
			"mesh":0,
			"name":"Library_storage"
		}
	],
	"materials":[
		{
			"alphaCutoff":0.33329999446868896,
			"alphaMode":"MASK",
			"name":"WoodWorn03Brown_SM_Library14",
			"normalTexture":{
				"extensions":{
					"KHR_texture_transform":{
						"offset":[
							-0.008272354491055012,
							-0.008198433555662632
						],
						"scale":[
							1.0258032083511353,
							1.0166373252868652
						]
					}
				},
				"index":0,
				"texCoord":1
			},
			"pbrMetallicRoughness":{
				"baseColorTexture":{
					"extensions":{
						"KHR_texture_transform":{
							"offset":[
								-0.008272354491055012,
								-0.008198433555662632
							],
							"scale":[
								1.0258032083511353,
								1.0166373252868652
							]
						}
					},
					"index":1,
					"texCoord":1
				},
				"metallicRoughnessTexture":{
					"extensions":{
						"KHR_texture_transform":{
							"offset":[
								-0.008272354491055012,
								-0.008198433555662632
							],
							"scale":[
								1.0258032083511353,
								1.0166373252868652
							]
						}
					},
					"index":2,
					"texCoord":1
				}
			}
		}
	],
	"meshes":[
		{
			"name":"Library_storage",
			"primitives":[
				{
					"attributes":{
						"POSITION":0,
						"NORMAL":1,
						"TEXCOORD_0":2,
						"TEXCOORD_1":3
					},
					"indices":4,
					"material":0
				}
			]
		}
	],
	"textures":[
		{
			"sampler":0,
			"source":0
		},
		{
			"sampler":0,
			"source":1
		},
		{
			"sampler":0,
			"source":2
		}
	],
	"images":[
		{
			"mimeType":"image/png",
			"name":"MI_WoodWorn03Brown_SM_Library14_Normal",
			"uri":"MI_WoodWorn03Brown_SM_Library14_Normal.png"
		},
		{
			"mimeType":"image/png",
			"name":"MI_WoodWorn03Brown_SM_Library14_BaseColor",
			"uri":"MI_WoodWorn03Brown_SM_Library14_BaseColor.png"
		},
		{
			"mimeType":"image/png",
			"name":"MI_WoodWorn03Brown_SM_Library14_MetallicRoughness",
			"uri":"MI_WoodWorn03Brown_SM_Library14_MetallicRoughness.png"
		}
	],
	"accessors":[
		{
			"bufferView":0,
			"componentType":5126,
			"count":1321,
			"max":[
				0.5088225603103638,
				0.9543232321739197,
				0.17328676581382751
			],
			"min":[
				-0.507447361946106,
				-0.964762270450592,
				-0.1875459849834442
			],
			"type":"VEC3"
		},
		{
			"bufferView":1,
			"componentType":5126,
			"count":1321,
			"type":"VEC3"
		},
		{
			"bufferView":2,
			"componentType":5126,
			"count":1321,
			"type":"VEC2"
		},
		{
			"bufferView":3,
			"componentType":5126,
			"count":1321,
			"type":"VEC2"
		},
		{
			"bufferView":4,
			"componentType":5123,
			"count":4608,
			"type":"SCALAR"
		}
	],
	"bufferViews":[
		{
			"buffer":0,
			"byteLength":15852,
			"byteOffset":0,
			"target":34962
		},
		{
			"buffer":0,
			"byteLength":15852,
			"byteOffset":15852,
			"target":34962
		},
		{
			"buffer":0,
			"byteLength":10568,
			"byteOffset":31704,
			"target":34962
		},
		{
			"buffer":0,
			"byteLength":10568,
			"byteOffset":42272,
			"target":34962
		},
		{
			"buffer":0,
			"byteLength":9216,
			"byteOffset":52840,
			"target":34963
		}
	],
	"samplers":[
		{
			"magFilter":9729,
			"minFilter":9987
		}
	],
	"buffers":[
		{
			"byteLength":62056,
			"uri":"library_storage.bin"
		}
	]
}
